<?xml version="1.0" encoding="utf-8"?>
<!-- Generator: Adobe Illustrator 16.0.0, SVG Export Plug-In . SVG Version: 6.00 Build 0)  -->
<!DOCTYPE svg PUBLIC "-//W3C//DTD SVG 1.1//EN" "http://www.w3.org/Graphics/SVG/1.1/DTD/svg11.dtd">
<svg version="1.1" xmlns="http://www.w3.org/2000/svg" xmlns:xlink="http://www.w3.org/1999/xlink" x="0px" y="0px"
	 width="60.313px" height="30.51px" viewBox="0 0 60.313 30.51" enable-background="new 0 0 60.313 30.51" xml:space="preserve">
<g id="Rounded_Rectangle_1_1_" enable-background="new    ">
</g>
<g id="Rounded_Rectangle_1_copy_1_" enable-background="new    ">
	<path fill="#FFFFFF" d="M59.26,3.663l-1.728-2.048c-1.591-1.885-4.407-2.123-6.292-0.532L30.157,17.127L9.074,1.083
		C7.189-0.508,4.372-0.27,2.781,1.615L1.053,3.663c-1.591,1.885-1.352,4.702,0.532,6.292l25.65,19.521
		c0.746,0.629,1.638,0.961,2.542,1.028c0.126,0.012,0.252,0.003,0.379,0.004c0.127-0.001,0.253,0.008,0.379-0.004
		c0.904-0.067,1.796-0.399,2.542-1.028l25.65-19.521C60.612,8.365,60.852,5.548,59.26,3.663z"/>
</g>
</svg>
