<?xml version="1.0" encoding="utf-8"?>
<!-- Generator: Adobe Illustrator 16.0.0, SVG Export Plug-In . SVG Version: 6.00 Build 0)  -->
<!DOCTYPE svg PUBLIC "-//W3C//DTD SVG 1.1//EN" "http://www.w3.org/Graphics/SVG/1.1/DTD/svg11.dtd">
<svg version="1.1" xmlns="http://www.w3.org/2000/svg" xmlns:xlink="http://www.w3.org/1999/xlink" x="0px" y="0px" width="293px"
	 height="60.311px" viewBox="0 0 293 60.311" enable-background="new 0 0 293 60.311" xml:space="preserve">
<g id="To_the_m______n_1_" enable-background="new    ">
	<g id="To_the_m______n">
		<g>
			<path fill-rule="evenodd" clip-rule="evenodd" fill="#FFFFFF" d="M0.057,13.662h9.182v26.243h1.27V13.662h9.146v-1.124H0.057
				V13.662z M29.49,20.041c-4.609,0-9,3.625-9,10.331c0,6.053,3.811,9.968,8.783,9.968c4.137,0,9.109-3.045,9.109-10.33
				C38.381,24.138,34.897,20.041,29.49,20.041z M29.309,39.289c-4.21,0-7.512-4.205-7.512-9.026c0-4.603,2.613-9.17,7.73-9.17
				c5.298,0,7.548,4.93,7.548,9.062C37.075,35.519,33.555,39.289,29.309,39.289z M54.436,16.344l-1.271,0.58v3.553H49.79V21.6h3.375
				v12.94c0,2.284,0.291,5.764,4.246,5.764c1.125,0,1.887-0.218,2.504-0.472l-0.291-0.942c-0.472,0.182-1.125,0.362-2.141,0.362
				c-2.105,0-3.048-1.812-3.048-4.276V21.6h5.734v-1.123h-5.734V16.344z M72.63,20.041c-1.633,0-4.827,0.652-6.75,4.097h-0.073
				v-13.05h-1.27v28.817h1.27v-11.89c0-3.77,3.266-6.887,6.605-6.887c4.246,0,5.662,3.552,5.662,7.141v11.636h1.27V28.124
				C79.344,20.657,74.372,20.041,72.63,20.041z M93.171,20.041c-4.754,0-8.564,3.771-8.564,10.512c0,5.655,3.411,9.751,8.855,9.751
				c3.52,0,5.48-0.979,6.024-1.305l-0.436-0.979c-1.053,0.508-2.504,1.232-5.407,1.232c-4.899,0-7.767-3.479-7.73-9.568h14.625
				c0.037-0.182,0.037-0.363,0.037-0.616C100.575,25.08,98.942,20.041,93.171,20.041z M86.059,28.56
				c0.363-3.227,2.432-7.503,6.968-7.503c5.226,0,6.169,5.328,6.133,7.503H86.059z M136.021,12.538l-6.605,16.928
				c-1.452,3.77-2.432,6.126-3.157,8.554h-0.073c-0.834-2.537-1.814-5.146-3.121-8.699l-6.387-16.782h-1.343l-1.996,27.367h1.307
				l0.907-12.94c0.363-4.712,0.581-9.497,0.653-12.65h0.109c0.834,2.936,1.996,6.053,3.666,10.512l5.77,15.151h0.835l6.133-15.55
				c1.669-4.205,2.758-7.25,3.774-10.113h0.109c-0.036,2.719,0.291,7.467,0.617,12.251l0.834,13.34h1.27l-1.851-27.367H136.021z
				 M213.893,12.538v14.499c0,4.313,0,7.286,0.254,10.946l-0.072,0.073c-1.307-2.574-2.831-4.894-5.117-8.41l-11.359-17.108H196.4
				v27.367h1.27V25.188c0-6.054,0-7.757-0.217-10.62l0.108-0.036c1.415,2.754,3.229,5.437,5.298,8.626l11.033,16.747h1.27V12.538
				H213.893z"/>
		</g>
	</g>
</g>
<g id="and_back_1_" enable-background="new    ">
	<g id="and_back_3_">
		<g>
			<path fill-rule="evenodd" clip-rule="evenodd" fill="#FFFFFF" d="M206.818,51.884c0-2.186-0.601-5.019-4.227-5.019
				c-0.984,0-2.377,0.288-3.578,1.129l0.336,0.624c0.937-0.672,2.09-1.032,3.17-1.032c3.458,0,3.458,3.145,3.458,4.609
				c-5.331-0.072-7.876,1.753-7.876,4.657c0,1.657,1.128,3.458,3.722,3.458c2.113,0,3.554-1.249,4.154-2.233h0.048l0.192,1.945
				h0.792c-0.168-1.033-0.191-2.041-0.191-3.05V51.884z M205.953,56.037c0,1.056-1.128,3.577-4.178,3.577
				c-1.417,0-2.811-0.913-2.811-2.905c0-3.434,4.491-3.817,6.988-3.77V56.037z M216.617,46.865c-1.97,0-3.603,1.033-4.516,2.689
				h-0.048l-0.071-2.401h-0.817c0.072,0.984,0.097,1.801,0.097,2.905v9.964h0.84v-8.043c0-1.993,1.754-4.394,4.322-4.394
				c2.834,0,3.795,2.305,3.795,4.777v7.659h0.84v-7.731C221.059,47.322,217.625,46.865,216.617,46.865z M235.589,40.936h-0.841
				v8.331h-0.072c-0.768-1.488-2.665-2.401-4.299-2.401c-3.193,0-5.835,2.665-5.811,6.963c0.023,3.817,2.354,6.482,5.547,6.482
				c1.969,0,3.891-1.129,4.658-2.857h0.072l0.072,2.569h0.793c-0.072-0.913-0.12-2.018-0.12-2.857V40.936z M234.748,54.86
				c0,2.112-1.705,4.754-4.49,4.754c-3.146,0-4.827-2.953-4.827-5.906c0-3.554,1.97-6.146,4.923-6.146
				c2.498,0,4.395,1.993,4.395,4.658V54.86z M251.398,46.865c-2.4,0-3.986,1.225-4.826,2.857h-0.049v-8.787h-0.84v16.229
				c0,0.84-0.023,1.944-0.096,2.857h0.792l0.072-2.425h0.071c1.082,1.872,2.594,2.713,4.707,2.713c2.738,0,5.716-2.186,5.716-6.867
				C256.946,49.603,254.713,46.865,251.398,46.865z M251.158,59.614c-2.833,0-4.635-2.521-4.635-4.562v-2.569
				c0-1.921,1.729-4.897,4.779-4.897c3.074,0,4.779,2.785,4.779,5.882C256.082,56.997,254.281,59.614,251.158,59.614z
				 M267.658,51.884c0-2.186-0.602-5.019-4.227-5.019c-0.985,0-2.378,0.288-3.579,1.129l0.337,0.624
				c0.936-0.672,2.089-1.032,3.17-1.032c3.457,0,3.457,3.145,3.457,4.609c-5.33-0.072-7.876,1.753-7.876,4.657
				c0,1.657,1.128,3.458,3.722,3.458c2.113,0,3.555-1.249,4.154-2.233h0.049l0.191,1.945h0.793c-0.168-1.033-0.191-2.041-0.191-3.05
				V51.884z M266.793,56.037c0,1.056-1.129,3.577-4.179,3.577c-1.417,0-2.81-0.913-2.81-2.905c0-3.434,4.49-3.817,6.988-3.77V56.037
				z M277.48,47.562c1.44,0,2.449,0.505,3.049,0.864l0.385-0.624c-0.769-0.624-2.33-0.937-3.41-0.937
				c-3.698,0-6.508,2.713-6.508,6.867c0,3.816,2.426,6.554,6.076,6.554c1.92,0,3.266-0.648,3.794-0.912l-0.337-0.624
				c-0.695,0.312-1.681,0.84-3.313,0.84c-3.122,0-5.355-2.425-5.355-5.954C271.86,50.467,273.83,47.562,277.48,47.562z
				 M286.895,52.508l5.307-5.354h-1.08l-4.827,4.994c-0.408,0.432-0.985,1.008-1.297,1.368h-0.048v-12.58h-0.841v19.087h0.841
				v-5.595l1.369-1.392l5.57,6.986h1.057L286.895,52.508z"/>
		</g>
	</g>
</g>
<g id="shape_xA0_Image_1_">
	<path fill="#FFFFFF" d="M167.332,50.166c-13.692,0-24.832-11.14-24.832-24.833C142.5,11.64,153.64,0.5,167.332,0.5
		c13.693,0,24.834,11.14,24.834,24.833C192.166,39.026,181.025,50.166,167.332,50.166z M167.332,3.5
		c-12.038,0-21.832,9.794-21.832,21.833c0,12.039,9.794,21.833,21.832,21.833c12.039,0,21.834-9.794,21.834-21.833
		C189.166,13.294,179.371,3.5,167.332,3.5z"/>
</g>
</svg>
